<svg xmlns="http://www.w3.org/2000/svg" xmlns:xlink="http://www.w3.org/1999/xlink" width="128" height="128" viewBox="0 0 128 128">
  <defs>
    <clipPath id="clip-nofollow">
      <rect width="128" height="128"/>
    </clipPath>
  </defs>
  <g id="nofollow" clip-path="url(#clip-nofollow)">
    <circle id="Ellipse_1" data-name="Ellipse 1" cx="64" cy="64" r="64" fill="#990080"/>
    <circle id="Ellipse_4" data-name="Ellipse 4" cx="64" cy="64" r="64" fill="#990080"/>
    <path id="Pfad_23" data-name="Pfad 23" d="M33.617-32.394A17.208,17.208,0,0,0,16.382-15.159,17.208,17.208,0,0,0,33.617,2.076,17.208,17.208,0,0,0,50.852-15.159,17.208,17.208,0,0,0,33.617-32.394Zm0,28.44a11.225,11.225,0,0,1-11.2-11.2,11.216,11.216,0,0,1,11.2-11.205A11.216,11.216,0,0,1,44.822-15.159,11.225,11.225,0,0,1,33.617-3.954ZM55.577-33.1a4.02,4.02,0,0,0-4.02-4.02,4.02,4.02,0,0,0-4.02,4.02,4.011,4.011,0,0,0,4.02,4.02A4.011,4.011,0,0,0,55.577-33.1Zm11.415,4.08c-.255-5.385-1.485-10.155-5.43-14.085s-8.7-5.16-14.085-5.43c-5.55-.315-22.185-.315-27.735,0-5.37.255-10.14,1.485-14.085,5.415S.5-34.419.227-29.034C-.087-23.484-.087-6.849.227-1.3.482,4.086,1.713,8.856,5.657,12.786s8.7,5.16,14.085,5.43c5.55.315,22.185.315,27.735,0,5.385-.255,10.155-1.485,14.085-5.43s5.16-8.7,5.43-14.085C67.307-6.849,67.307-23.469,66.992-29.019ZM59.822,4.656a11.344,11.344,0,0,1-6.39,6.39C49.007,12.8,38.507,12.4,33.617,12.4s-15.4.39-19.815-1.35a11.344,11.344,0,0,1-6.39-6.39C5.657.231,6.062-10.269,6.062-15.159s-.39-15.4,1.35-19.815a11.344,11.344,0,0,1,6.39-6.39c4.425-1.755,14.925-1.35,19.815-1.35s15.4-.39,19.815,1.35a11.344,11.344,0,0,1,6.39,6.39c1.755,4.425,1.35,14.925,1.35,19.815S61.577.246,59.822,4.656Z" transform="translate(30.729 79.49)" fill="#fff"/>
    <path id="Pfad_24" data-name="Pfad 24" d="M33.617-32.394A17.208,17.208,0,0,0,16.382-15.159,17.208,17.208,0,0,0,33.617,2.076,17.208,17.208,0,0,0,50.852-15.159,17.208,17.208,0,0,0,33.617-32.394Zm0,28.44a11.225,11.225,0,0,1-11.2-11.2,11.216,11.216,0,0,1,11.2-11.205A11.216,11.216,0,0,1,44.822-15.159,11.225,11.225,0,0,1,33.617-3.954ZM55.577-33.1a4.02,4.02,0,0,0-4.02-4.02,4.02,4.02,0,0,0-4.02,4.02,4.011,4.011,0,0,0,4.02,4.02A4.011,4.011,0,0,0,55.577-33.1Zm11.415,4.08c-.255-5.385-1.485-10.155-5.43-14.085s-8.7-5.16-14.085-5.43c-5.55-.315-22.185-.315-27.735,0-5.37.255-10.14,1.485-14.085,5.415S.5-34.419.227-29.034C-.087-23.484-.087-6.849.227-1.3.482,4.086,1.713,8.856,5.657,12.786s8.7,5.16,14.085,5.43c5.55.315,22.185.315,27.735,0,5.385-.255,10.155-1.485,14.085-5.43s5.16-8.7,5.43-14.085C67.307-6.849,67.307-23.469,66.992-29.019ZM59.822,4.656a11.344,11.344,0,0,1-6.39,6.39C49.007,12.8,38.507,12.4,33.617,12.4s-15.4.39-19.815-1.35a11.344,11.344,0,0,1-6.39-6.39C5.657.231,6.062-10.269,6.062-15.159s-.39-15.4,1.35-19.815a11.344,11.344,0,0,1,6.39-6.39c4.425-1.755,14.925-1.35,19.815-1.35s15.4-.39,19.815,1.35a11.344,11.344,0,0,1,6.39,6.39c1.755,4.425,1.35,14.925,1.35,19.815S61.577.246,59.822,4.656Z" transform="translate(30.729 79.49)" fill="#fff"/>
    <circle id="Ellipse_5" data-name="Ellipse 5" cx="64" cy="64" r="64" fill="#990080"/>
    <path id="Pfad_28" data-name="Pfad 28" d="M61.477-48.124a6.111,6.111,0,0,0-6.133,6.133v13.116h-1.2v-26.5a6.111,6.111,0,0,0-6.133-6.133,6.016,6.016,0,0,0-5.9,6.015v26.619h-1.2V-61.24a6.111,6.111,0,0,0-6.133-6.133,6.016,6.016,0,0,0-5.9,6.015v32.484h-1.2v-26.35a6.111,6.111,0,0,0-6.133-6.133,6.016,6.016,0,0,0-5.9,6.015v35.491L10.881-26.4a6.016,6.016,0,0,0-8.4-1.327,6.016,6.016,0,0,0-1.327,8.4L20.04,6.652a8.115,8.115,0,0,0,5.838,2.973H55.594A7.219,7.219,0,0,0,62.621,4.06l3.987-16.943a34.72,34.72,0,0,0,.768-6.613V-42.109A6.015,6.015,0,0,0,61.477-48.124Z" transform="translate(27 91.375)" fill="#fff"/>
  </g>
</svg>
