<svg xmlns="http://www.w3.org/2000/svg" xmlns:xlink="http://www.w3.org/1999/xlink" width="16" height="16" viewBox="0 0 16 16">
  <defs>
    <clipPath id="clip-nofollow-icon-mask">
      <rect width="16" height="16"/>
    </clipPath>
  </defs>
  <g id="nofollow-icon-mask" clip-path="url(#clip-nofollow-icon-mask)">
    <path d="M12.774-63.375A1.27,1.27,0,0,0,11.5-62.1v2.725h-.25v-5.507a1.27,1.27,0,0,0-1.274-1.274,1.25,1.25,0,0,0-1.226,1.25v5.531H8.5V-66.1a1.27,1.27,0,0,0-1.274-1.274A1.25,1.25,0,0,0,6-66.125v6.75H5.75V-64.85a1.27,1.27,0,0,0-1.274-1.274,1.25,1.25,0,0,0-1.226,1.25V-57.5l-.989-1.36a1.25,1.25,0,0,0-1.746-.276A1.25,1.25,0,0,0,.239-57.39l3.925,5.4a1.686,1.686,0,0,0,1.213.618h6.175a1.5,1.5,0,0,0,1.46-1.156l.828-3.521A7.215,7.215,0,0,0,14-57.426v-4.7A1.25,1.25,0,0,0,12.774-63.375Z" transform="translate(0 67.375)" fill="currentColor"/>
  </g>
</svg>
